<?xml version="1.0" standalone="no"?>
<!DOCTYPE svg PUBLIC "-//W3C//DTD SVG 20010904//EN"
 "http://www.w3.org/TR/2001/REC-SVG-20010904/DTD/svg10.dtd">
<svg version="1.0" xmlns="http://www.w3.org/2000/svg"
 width="128.000000pt" height="128.000000pt" viewBox="0 0 128.000000 128.000000"
 preserveAspectRatio="xMidYMid meet">
<metadata>
Created by potrace 1.14, written by Peter Selinger 2001-2017
</metadata>
<g transform="translate(0.000000,128.000000) scale(0.100000,-0.100000)"
fill="#000000" stroke="none">
<path d="M610 1248 c-31 -51 -42 -102 -29 -132 7 -14 18 -26 26 -26 8 0 13
-13 13 -39 0 -35 -2 -38 -25 -36 -36 4 -44 -12 -43 -100 1 -140 4 -131 -44
-128 -24 1 -55 2 -69 2 l-26 1 -1 148 c0 219 0 222 -16 222 -20 0 -22 -19 -21
-202 l1 -166 -37 -15 c-65 -26 -79 -62 -79 -204 0 -104 -2 -123 -15 -123 -27
0 -71 -28 -90 -57 -15 -23 -19 -49 -19 -148 l-1 -120 -50 -2 c-28 -1 -58 -2
-69 -2 -28 -1 -13 -59 24 -93 l30 -28 566 0 c637 0 613 -3 636 72 6 21 9 41 6
44 -3 3 -34 6 -69 7 l-63 2 -2 120 c0 98 -4 126 -19 148 -19 29 -63 57 -90 57
-13 0 -15 19 -15 123 0 142 -14 178 -78 204 l-38 14 1 110 c1 80 -3 113 -12
121 -8 6 -16 8 -20 5 -3 -4 -6 -58 -6 -121 l0 -114 -65 -4 c-35 -2 -66 1 -69
5 -3 5 -6 56 -6 113 0 57 -4 105 -8 105 -5 1 -17 2 -26 3 -10 1 -23 4 -29 8
-17 11 -4 67 16 73 38 12 33 81 -10 150 -12 19 -26 35 -31 35 -5 0 -18 -15
-29 -32z"/>
<path d="M379 1260 c-5 -36 -2 -45 14 -48 13 -3 17 3 17 27 0 21 -5 31 -15 31
-8 0 -16 -4 -16 -10z"/>
<path d="M292 1214 c4 -24 35 -41 48 -28 8 8 7 16 -5 28 -21 21 -47 21 -43 0z"/>
<path d="M450 1215 c-22 -26 4 -43 30 -20 11 10 20 22 20 27 0 14 -37 9 -50
-7z"/>
<path d="M256 1135 c-6 -18 13 -29 41 -23 28 5 22 33 -8 36 -17 2 -29 -3 -33
-13z"/>
<path d="M470 1136 c0 -20 38 -30 55 -16 21 17 9 30 -26 30 -18 0 -29 -5 -29
-14z"/>
<path d="M868 1123 c-6 -27 2 -55 15 -50 18 6 21 67 4 67 -8 0 -17 -8 -19 -17z"/>
<path d="M780 1087 c0 -18 21 -37 42 -37 12 0 16 5 11 18 -11 30 -53 46 -53
19z"/>
<path d="M940 1080 c-9 -16 -8 -22 6 -27 16 -6 44 19 44 39 0 17 -40 7 -50
-12z"/>
<path d="M302 1059 c-8 -13 -10 -25 -4 -31 12 -12 57 25 48 40 -11 18 -30 14
-44 -9z"/>
<path d="M440 1072 c0 -12 34 -42 48 -42 16 0 15 23 0 38 -14 14 -48 16 -48 4z"/>
<path d="M750 1005 c-13 -16 -2 -25 32 -25 22 0 29 4 26 17 -4 19 -44 25 -58
8z"/>
<path d="M964 1009 c-10 -17 12 -32 40 -25 17 4 23 11 20 21 -7 17 -50 20 -60
4z"/>
<path d="M795 930 c-14 -16 -16 -23 -7 -32 10 -10 17 -7 33 9 12 11 18 26 15
32 -10 16 -21 14 -41 -9z"/>
<path d="M936 941 c-10 -15 36 -53 48 -41 7 7 7 16 0 28 -13 20 -39 27 -48 13z"/>
</g>
</svg>
